<svg width="20" height="14" viewBox="0 0 20 14" fill="none" xmlns="http://www.w3.org/2000/svg">
<path fill-rule="evenodd" clip-rule="evenodd" d="M19.5303 2.03307C19.5303 1.40002 19.0528 0.886841 18.4637 0.886841H17.397C16.8079 0.886841 16.3303 1.40002 16.3303 2.03307V11.967C16.3303 12.6001 16.8079 13.1133 17.397 13.1133H18.4637C19.0528 13.1133 19.5303 12.6001 19.5303 11.967V2.03307ZM12.0962 3.33212H13.1629C13.752 3.33212 14.2295 3.85762 14.2295 4.50586V11.9395C14.2295 12.5878 13.752 13.1133 13.1629 13.1133H12.0962C11.5071 13.1133 11.0295 12.5878 11.0295 11.9395V4.50586C11.0295 3.85762 11.5071 3.33212 12.0962 3.33212ZM7.76444 5.98117H6.69777C6.10867 5.98117 5.6311 6.51336 5.6311 7.16985V11.9246C5.6311 12.5811 6.10867 13.1132 6.69777 13.1132H7.76444C8.35354 13.1132 8.8311 12.5811 8.8311 11.9246V7.16985C8.8311 6.51336 8.35354 5.98117 7.76444 5.98117ZM2.46366 8.42646H1.39699C0.807885 8.42646 0.330322 8.95105 0.330322 9.59816V11.9416C0.330322 12.5887 0.807885 13.1133 1.39699 13.1133H2.46366C3.05276 13.1133 3.53032 12.5887 3.53032 11.9416V9.59816C3.53032 8.95105 3.05276 8.42646 2.46366 8.42646Z" fill="white"/>
</svg>
