<svg width="18" height="14" viewBox="0 0 18 14" fill="none" xmlns="http://www.w3.org/2000/svg">
<path fill-rule="evenodd" clip-rule="evenodd" d="M9.10158 3.3021C11.5887 3.3022 13.9807 4.22428 15.7832 5.87776C15.9189 6.00542 16.1359 6.00381 16.2696 5.87415L17.5671 4.61069C17.6348 4.54493 17.6725 4.45585 17.6719 4.36317C17.6714 4.27049 17.6326 4.18184 17.5641 4.11685C12.8331 -0.257863 5.36934 -0.257863 0.638329 4.11685C0.569797 4.1818 0.530913 4.27041 0.530281 4.3631C0.529649 4.45578 0.567322 4.54488 0.634962 4.61069L1.93283 5.87415C2.06642 6.004 2.28355 6.00562 2.4192 5.87776C4.22194 4.22418 6.61422 3.30209 9.10158 3.3021ZM9.09822 7.52237C10.4555 7.52229 11.7644 8.03403 12.7705 8.95816C12.9066 9.08931 13.121 9.08647 13.2536 8.95175L14.5409 7.63244C14.6087 7.56324 14.6463 7.46936 14.6454 7.37181C14.6444 7.27426 14.6049 7.18118 14.5357 7.11339C11.4719 4.22254 6.72715 4.22254 3.66332 7.11339C3.59411 7.18118 3.55463 7.27431 3.55372 7.37189C3.55281 7.46947 3.59056 7.56334 3.65849 7.63244L4.9454 8.95175C5.07805 9.08647 5.29242 9.08931 5.4285 8.95816C6.43396 8.03464 7.7418 7.52294 9.09822 7.52237ZM11.6226 10.3159C11.6246 10.4213 11.5875 10.5228 11.5202 10.5967L9.34354 13.0514C9.27974 13.1235 9.19274 13.1641 9.10197 13.1641C9.01121 13.1641 8.92421 13.1235 8.86041 13.0514L6.68338 10.5967C6.61613 10.5228 6.57913 10.4212 6.58112 10.3158C6.58312 10.2105 6.62393 10.1107 6.69391 10.0401C8.08401 8.72621 10.1199 8.72621 11.51 10.0401C11.58 10.1108 11.6207 10.2106 11.6226 10.3159Z" fill="white"/>
</svg>
